<svg version="1.1" id="레이어_1" xmlns="http://www.w3.org/2000/svg" xmlns:xlink="http://www.w3.org/1999/xlink" x="0px"
        y="0px" viewBox="0 0 933.626 369.457" style="enable-background:new 0 0 933.626 369.457;" xml:space="preserve">
      <g>
        <polyline class="st0" points="69.909,232.489 69.909,277.061 60.085,277.061 56.69,275.695 51.969,232.489 	"/>
        <polyline class="st0" points="51.001,223.622 41.755,138.995 44.723,137.676 69.909,140.841 69.909,222.731 	"/>
        <line class="st0" x1="55.173" y1="232.489" x2="60.085" y2="277.061"/>
        <line class="st0" x1="44.723" y1="137.676" x2="54.179" y2="223.472"/>
        <polygon class="st0" points="111.052,222.203 81.118,222.203 44.723,223.918 44.723,232.489 80.986,232.489 111.052,232.489 	"/>
        <line class="st0" x1="81.118" y1="222.203" x2="80.986" y2="232.489"/>
        <line class="st0" x1="186.613" y1="295.786" x2="69.909" y2="277.061"/>
        <line class="st0" x1="184.883" y1="280.545" x2="95.36" y2="269.808"/>
        <polyline class="st0" points="55.537,265.149 49.074,265.149 49.074,272.841 52.306,274.159 56.448,273.487 	"/>
        <line class="st0" x1="50.129" y1="265.149" x2="50.129" y2="233.017"/>
        <line class="st0" x1="166.766" y1="102.599" x2="69.909" y2="140.841"/>
        <polygon class="st0" points="167.953,77.874 31.865,139.786 31.865,126.731 167.953,57.5 	"/>
        <line class="st0" x1="31.371" y1="140.313" x2="41.558" y2="140.313"/>
        <polyline class="st0" points="167.953,57.5 474.349,92.907 474.349,108.533 167.953,77.874 	"/>
        <polyline class="st0" points="453.975,129.302 453.975,110.115 171.118,81.632 164.986,84.006 186.613,297.632 194.854,299.214 
          326.195,290.445 	"/>
        <line class="st0" x1="171.118" y1="81.632" x2="194.854" y2="299.214"/>
        <polygon class="st0" points="457.997,179.742 457.997,130.028 339.843,117.632 339.843,213.368 349.865,213.368 350.525,130.951 
          449.69,140.313 449.69,179.214 	"/>
        <polygon class="st0" points="349.865,213.368 433.997,214.819 433.997,226.951 349.865,225.896 	"/>
        <polyline class="st0" points="349.865,225.896 331.536,225.896 331.536,119.478 339.843,117.632 	"/>
        <polyline class="st0" points="439.799,178.159 440.063,141.632 350.509,132.925 	"/>
        <line class="st0" x1="357.345" y1="133.59" x2="357.345" y2="213.368"/>
        <line class="st0" x1="371.788" y1="134.994" x2="371.788" y2="213.368"/>
        <line class="st0" x1="386.624" y1="136.486" x2="386.624" y2="213.863"/>
        <line class="st0" x1="400.865" y1="137.821" x2="400.865" y2="213.863"/>
        <line class="st0" x1="414.514" y1="139.148" x2="414.514" y2="214.977"/>
        <line class="st0" x1="426.975" y1="140.303" x2="426.975" y2="178.159"/>
        <line class="st0" x1="350.509" y1="164.709" x2="439.269" y2="170.039"/>
        <line class="st0" x1="350.509" y1="154.87" x2="439.269" y2="160.2"/>
        <line class="st0" x1="350.509" y1="189.632" x2="414.514" y2="192.006"/>
        <line class="st0" x1="414.514" y1="264.464" x2="414.514" y2="226.706"/>
        <line class="st0" x1="433.008" y1="226.938" x2="433.008" y2="264.12"/>
        <polyline class="st0" points="414.514,178.159 424.206,178.159 881.426,204.467 881.426,214.753 433.008,197.94 433.008,214.802 	
          "/>
        <line class="st0" x1="424.206" y1="178.159" x2="424.206" y2="214.643"/>
        <line class="st0" x1="424.206" y1="226.828" x2="424.206" y2="264.226"/>
        <polygon class="st0" points="346.305,294.006 344.657,293.676 344.657,266.181 591.382,260.116 591.382,281.478 	"/>
        <line class="st0" x1="346.305" y1="294.006" x2="346.305" y2="266.131"/>
        <polyline class="st0" points="512.063,201.236 512.063,204.929 517.799,204.929 517.799,201.236 	"/>
        <polygon class="st0" points="513.58,205.588 513.58,262.028 516.288,262.028 516.288,204.929 513.58,204.929 	"/>
        <polyline class="st0" points="700.267,207.632 700.267,211.324 706.003,211.324 706.003,207.632 	"/>
        <polygon class="st0" points="701.784,211.984 701.784,271.72 704.492,271.72 704.492,211.324 701.784,211.324 	"/>
        <polyline class="st0" points="765.641,210.245 765.641,213.937 771.377,213.937 771.377,210.245 	"/>
        <polygon class="st0" points="767.157,214.596 767.157,267.962 769.865,267.962 769.865,213.937 767.157,213.937 	"/>
        <polyline class="st0" points="821.817,212.379 821.817,216.072 827.553,216.072 827.553,212.379 	"/>
        <polygon class="st0" points="823.333,216.731 823.333,265.258 826.041,265.258 826.041,216.072 823.333,216.072 	"/>
        <polyline class="st0" points="867.283,214.511 867.283,218.203 873.019,218.203 873.019,214.511 	"/>
        <polygon class="st0" points="868.799,218.863 868.799,262.555 871.508,262.555 871.508,218.203 868.799,218.203 	"/>
        <line class="st0" x1="341.69" y1="278.379" x2="341.69" y2="226.159"/>
        <line class="st0" x1="375.449" y1="226.217" x2="375.449" y2="265.061"/>
        <line class="st0" x1="382.305" y1="265.061" x2="382.305" y2="226.296"/>
        <line class="st0" x1="342.283" y1="241.786" x2="374.92" y2="241.786"/>
        <line class="st0" x1="382.305" y1="241.786" x2="414.514" y2="241.786"/>
        <line class="st0" x1="345.184" y1="242.247" x2="345.184" y2="265.654"/>
        <line class="st0" x1="371.953" y1="242.247" x2="371.953" y2="265.654"/>
        <polyline class="st0" points="346.898,265.654 346.898,244.225 370.305,244.225 370.305,265.061 	"/>
        <line class="st0" x1="382.766" y1="244.225" x2="413.97" y2="244.225"/>
        <line class="st0" x1="356.854" y1="252.83" x2="356.854" y2="265.44"/>
        <line class="st0" x1="360.514" y1="252.83" x2="360.514" y2="265.44"/>
        <polyline class="st0" points="591.382,279.698 618.085,278.643 618.085,204.879 	"/>
        <line class="st0" x1="591.382" y1="269.017" x2="617.859" y2="268.094"/>
        <polyline class="st0" points="613.668,204.713 613.668,208.489 618.085,208.489 	"/>
        <line class="st0" x1="615.085" y1="208.489" x2="615.085" y2="278.778"/>
        <polyline class="st0" points="618.81,272.577 639.514,271.654 696.349,274.621 870.942,265.588 870.942,262.555 	"/>
        <polyline class="st0" points="618.085,229.786 645.646,229.786 656.327,229.786 656.327,235.423 645.448,235.423 618.448,235.423 	
          "/>
        <line class="st0" x1="645.646" y1="229.786" x2="645.646" y2="235.423"/>
        <polyline class="st0" points="618.81,245.017 630.118,245.017 631.898,245.017 	"/>
        <line class="st0" x1="630.118" y1="262.324" x2="630.118" y2="245.017"/>
        <line class="st0" x1="627.942" y1="262.324" x2="627.942" y2="245.017"/>
        <polyline class="st0" points="618.085,262.324 631.206,262.324 631.206,265.588 618.085,265.588 	"/>
        <line class="st0" x1="621.019" y1="262.324" x2="621.019" y2="265.588"/>
        <polyline class="st0" points="624.646,262.324 624.646,247.291 617.859,247.291 	"/>
        <polyline class="st0" points="618.398,252.039 620.376,252.039 620.376,254.561 618.085,254.561 	"/>
        <rect x="671.162" y="229.786" class="st0" width="13.055" height="23.514"/>
        <line class="st0" x1="671.162" y1="244.423" x2="684.217" y2="244.423"/>
        <line class="st0" x1="696.349" y1="274.621" x2="696.349" y2="207.813"/>
        <polyline class="st0" points="631.206,263.956 638.821,263.511 638.821,236.214 	"/>
        <line class="st0" x1="826.041" y1="260.235" x2="868.799" y2="258.731"/>
        <line class="st0" x1="769.93" y1="262.209" x2="823.333" y2="260.33"/>
        <line class="st0" x1="704.492" y1="264.51" x2="767.157" y2="262.306"/>
        <polyline class="st0" points="638.821,263.511 696.349,264.797 701.784,264.606 	"/>
        <rect x="722.393" y="230.577" class="st0" width="6.725" height="21.857"/>
        <line class="st0" x1="722.393" y1="244.423" x2="729.118" y2="244.423"/>
        <rect x="720.415" y="228.772" class="st0" width="10.681" height="25.467"/>
        <rect x="704.492" y="230.577" class="st0" width="6.956" height="21.857"/>
        <line class="st0" x1="704.723" y1="244.423" x2="711.448" y2="244.423"/>
        <polyline class="st0" points="704.492,254.239 713.426,254.239 713.426,228.772 704.492,228.772 	"/>
        <path class="st0" d="M457.997,173.479c0,0,256.311,14.086,357.342,27.186"/>
        <path class="st0" d="M686.937,188.497l167.291-9.546l44.209,16.319c0,0,13.319,5.395,8.901,27.791l-6.527,41.736h-3.758h-9.297
          l6.033-31.846c0,0,4.945-26.11-6.063-30.175l-42.399-14.133l-103.569,4.374"/>
        <path class="st0" d="M897.052,264.797c0,0,4.83-29.783,6.824-45.495c1.615-12.725-7.912-16.516-7.912-16.516l-42.132-14.143h-8.505
          v13.747"/>
        <line class="st0" x1="854.228" y1="178.951" x2="854.228" y2="188.643"/>
        <line class="st0" x1="870.942" y1="265.588" x2="887.755" y2="264.797"/>
        <polyline class="st0" points="344.657,278.841 340.041,278.841 340.041,281.61 335.03,281.61 335.03,284.973 331.008,284.973 
          331.008,288.137 326.195,288.137 326.195,290.445 344.442,292.588 	"/>
        <line class="st0" x1="331.008" y1="288.137" x2="344.657" y2="289.522"/>
        <line class="st0" x1="335.03" y1="284.973" x2="344.657" y2="286.357"/>
        <line class="st0" x1="340.041" y1="281.61" x2="344.442" y2="282.253"/>
        <line class="st0" x1="474.349" y1="108.533" x2="453.975" y2="112.489"/>
        <polygon class="st0" points="91.948,271.521 95.063,271.473 95.063,245.066 83.739,245.066 83.739,247.539 91.948,247.539 	"/>
        <polyline class="st0" points="91.948,271.357 84.712,271.201 84.712,247.42 	"/>
        <line class="st0" x1="84.712" y1="270.335" x2="91.948" y2="266.271"/>
        <polyline class="st0" points="69.909,235.687 81.679,235.687 81.679,268.687 78.81,268.687 78.81,238.192 69.909,238.192 
          69.909,267.5 78.81,267.896 	"/>
        <line class="st0" x1="78.613" y1="262.588" x2="69.909" y2="267.5"/>
        <polygon class="st0" points="133.734,259.061 121.734,258.293 121.734,227.346 133.734,227.346 	"/>
        <polygon class="st0" points="144.876,226.621 144.876,259.984 159.052,261.039 159.052,226.621 	"/>
        <polygon class="st0" points="175.668,237.896 175.668,268.687 167.624,267.896 167.624,237.896 	"/>
        <polygon class="st0" points="167.624,188.05 167.624,218.907 176.261,218.214 176.261,196.455 175.447,187.34 	"/>
        <polyline class="st0" points="173.469,167.797 167.953,169.258 167.953,138.698 170.711,137.676 	"/>
        <polygon class="st0" points="154.701,142.258 154.701,153.467 148.766,154.918 148.766,143.742 	"/>
        <polygon class="st0" points="134.03,158.181 128.69,159.764 128.69,149.577 134.03,148.094 	"/>
        <polygon class="st0" points="117.316,164.214 117.316,174.203 111.679,175.588 111.679,165.698 	"/>
        <polygon class="st0" points="105.942,149.676 105.942,176.775 91.107,180.335 91.107,154.918 	"/>
        <polygon class="st0" points="84.481,156.401 84.481,181.423 72.118,184.192 72.118,160.852 	"/>
        <line class="st0" x1="127.734" y1="227.709" x2="127.734" y2="258.293"/>
        <line class="st0" x1="121.734" y1="246.555" x2="133.734" y2="246.863"/>
        <line class="st0" x1="152.854" y1="226.621" x2="152.854" y2="260.577"/>
        <line class="st0" x1="144.876" y1="247.42" x2="159.052" y2="247.72"/>
        <line class="st0" x1="167.624" y1="252.187" x2="175.272" y2="252.533"/>
        <line class="st0" x1="167.624" y1="202.225" x2="175.997" y2="201.698"/>
        <line class="st0" x1="167.953" y1="151.72" x2="171.81" y2="150.797"/>
        <path class="st0" d="M72.118,174.467c0-0.066,12.363-3.363,12.363-3.363"/>
        <line class="st0" x1="76.305" y1="173.31" x2="76.305" y2="183.264"/>
        <line class="st0" x1="80.508" y1="171.992" x2="80.508" y2="181.945"/>
        <line class="st0" x1="91.107" y1="170.284" x2="105.942" y2="166.249"/>
        <line class="st0" x1="96.085" y1="168.912" x2="96.085" y2="178.865"/>
        <line class="st0" x1="100.569" y1="167.594" x2="100.569" y2="178.064"/>
      </g>
      </svg>