<svg width="28" height="29" viewBox="0 0 28 29" fill="none" xmlns="http://www.w3.org/2000/svg">
<path fill-rule="evenodd" clip-rule="evenodd" d="M1.18994 12.3997C1.18994 7.59915 5.14734 3.71973 9.86994 3.71973H18.0599C22.8605 3.71973 26.7399 7.67712 26.7399 12.3997V13.6597C26.7399 14.8863 25.7265 15.8997 24.4999 15.8997H21.5599C19.3435 15.8997 17.6399 14.1064 17.6399 11.9797C17.6399 11.0363 16.9033 10.2997 15.9599 10.2997H12.0399C11.0965 10.2997 10.3599 11.0363 10.3599 11.9797C10.3599 14.0962 8.66639 15.8997 6.50994 15.8997H3.49994C2.2238 15.8997 1.18994 14.9065 1.18994 13.6597V12.3997ZM9.86994 5.11973C5.91255 5.11973 2.58994 8.38031 2.58994 12.3997V13.6597C2.58994 14.093 2.95608 14.4997 3.49994 14.4997H6.50994C7.8535 14.4997 8.95994 13.3633 8.95994 11.9797C8.95994 10.2631 10.3233 8.89973 12.0399 8.89973H15.9599C17.6765 8.89973 19.0399 10.2631 19.0399 11.9797C19.0399 13.3531 20.1364 14.4997 21.5599 14.4997H24.4999C24.9533 14.4997 25.3399 14.1131 25.3399 13.6597V12.3997C25.3399 8.44233 22.0794 5.11973 18.0599 5.11973H9.86994Z" fill="#2D2D2D"/>
<path fill-rule="evenodd" clip-rule="evenodd" d="M5.09436 17.2573C5.46571 17.3648 5.67961 17.753 5.57211 18.1243L4.80674 20.7683C4.43396 22.352 5.63691 23.8797 7.27971 23.8797H20.7197C22.3625 23.8797 23.5655 22.352 23.1927 20.7683L22.4273 18.1243C22.3198 17.753 22.5337 17.3648 22.9051 17.2573C23.2764 17.1498 23.6646 17.3637 23.7721 17.735L24.5421 20.395C24.545 20.4051 24.5477 20.4152 24.5502 20.4254C25.1467 22.8966 23.2719 25.2797 20.7197 25.2797H7.27971C4.72749 25.2797 2.85276 22.8966 3.44926 20.4254C3.45172 20.4152 3.45441 20.4051 3.45732 20.395L4.22732 17.735C4.33482 17.3637 4.723 17.1498 5.09436 17.2573Z" fill="#2D2D2D"/>
<path fill-rule="evenodd" clip-rule="evenodd" d="M13.9999 16.6695C13.0721 16.6695 12.3199 17.4217 12.3199 18.3495C12.3199 19.2774 13.0721 20.0295 13.9999 20.0295C14.9278 20.0295 15.6799 19.2774 15.6799 18.3495C15.6799 17.4217 14.9278 16.6695 13.9999 16.6695ZM10.9199 18.3495C10.9199 16.6485 12.2989 15.2695 13.9999 15.2695C15.701 15.2695 17.0799 16.6485 17.0799 18.3495C17.0799 20.0506 15.701 21.4295 13.9999 21.4295C12.2989 21.4295 10.9199 20.0506 10.9199 18.3495Z" fill="#2D2D2D"/>
</svg>
