<svg width="24" height="24" viewBox="0 0 24 24" fill="none" xmlns="http://www.w3.org/2000/svg">
<rect width="24" height="24" rx="8" fill="#E8EBED"/>
<g clip-path="url(#clip0_643_3974)">
<path d="M19.3 10.3995C19.175 10.2745 19.0055 10.2043 18.8287 10.2043C18.6519 10.2043 18.4824 10.2745 18.3573 10.3995L11.096 17.6921C10.7865 18.0017 10.419 18.2473 10.0146 18.4148C9.61016 18.5824 9.17668 18.6686 8.73892 18.6687C7.85481 18.6687 7.00689 18.3176 6.38168 17.6925C5.75648 17.0674 5.40521 16.2195 5.40515 15.3354C5.40508 14.4513 5.75623 13.6033 6.38135 12.9781L13.414 5.91681C13.7901 5.54673 14.2971 5.34025 14.8247 5.34234C15.3523 5.34442 15.8578 5.55491 16.2309 5.92794C16.604 6.30098 16.8146 6.80634 16.8168 7.33394C16.819 7.86155 16.6127 8.36866 16.2427 8.74481L9.21002 15.8061C9.08318 15.9276 8.91432 15.9955 8.73868 15.9955C8.56304 15.9955 8.39418 15.9276 8.26735 15.8061C8.14237 15.6811 8.07216 15.5116 8.07216 15.3348C8.07216 15.158 8.14237 14.9885 8.26735 14.8635L14.5287 8.57347C14.6501 8.44774 14.7173 8.27934 14.7158 8.10454C14.7143 7.92974 14.6442 7.76253 14.5206 7.63893C14.397 7.51532 14.2297 7.44521 14.0549 7.44369C13.8802 7.44217 13.7118 7.50937 13.586 7.63081L7.32468 13.9208C7.13893 14.1065 6.99158 14.327 6.89105 14.5697C6.79052 14.8124 6.73878 15.0725 6.73878 15.3351C6.73878 15.5978 6.79052 15.8579 6.89105 16.1006C6.99158 16.3433 7.13893 16.5638 7.32468 16.7495C7.70576 17.1131 8.21227 17.316 8.73902 17.316C9.26576 17.316 9.77227 17.1131 10.1533 16.7495L17.1853 9.68747C17.7973 9.05967 18.1374 8.21604 18.1317 7.33932C18.1261 6.4626 17.7753 5.62339 17.1553 5.00349C16.5353 4.38358 15.6961 4.0329 14.8194 4.02741C13.9426 4.02192 13.0991 4.36205 12.4713 4.97414L5.43868 12.0355C4.56347 12.9107 4.07178 14.0977 4.07178 15.3355C4.07178 16.5732 4.56347 17.7603 5.43868 18.6355C6.3139 19.5107 7.50094 20.0024 8.73868 20.0024C9.97642 20.0024 11.1635 19.5107 12.0387 18.6355L19.3 11.3448C19.3623 11.2829 19.4117 11.2092 19.4455 11.1281C19.4792 11.047 19.4965 10.96 19.4965 10.8721C19.4965 10.7843 19.4792 10.6973 19.4455 10.6162C19.4117 10.5351 19.3623 10.4614 19.3 10.3995Z" fill="#9EA4AA"/>
</g>
<defs>
<clipPath id="clip0_643_3974">
<rect width="16" height="16" fill="white" transform="translate(4 4)"/>
</clipPath>
</defs>
</svg>
