<svg width="56" height="56" viewBox="0 0 56 56" fill="none" xmlns="http://www.w3.org/2000/svg">
<g clip-path="url(#clip0_244_174)">
<path d="M14.06 29.1099H41.93C43.6399 29.1099 45.04 30.4999 45.04 32.2199C45.04 35.3499 42.5 37.8999 39.36 37.8999H16.63C13.5 37.8999 10.95 35.3599 10.95 32.2199C10.95 30.5099 12.34 29.1099 14.06 29.1099Z" fill="white"/>
<path d="M39.37 38.8999H16.64C12.96 38.8999 9.95996 35.8999 9.95996 32.2199C9.95996 29.9599 11.8 28.1099 14.07 28.1099H41.94C44.2 28.1099 46.05 29.9499 46.05 32.2199C46.05 35.8999 43.05 38.8999 39.37 38.8999ZM14.07 30.1199C12.91 30.1199 11.96 31.0699 11.96 32.2299C11.96 34.8099 14.06 36.9099 16.64 36.9099H39.37C41.95 36.9099 44.05 34.8099 44.05 32.2299C44.05 31.0699 43.1 30.1199 41.94 30.1199H14.06H14.07Z" fill="#1E1E1E"/>
<path d="M7.80005 29.89C11.16 29.89 11.16 33.36 14.53 33.36C17.9 33.36 17.9 29.89 21.26 29.89C24.62 29.89 24.62 33.36 27.99 33.36C31.36 33.36 31.3601 29.89 34.7201 29.89C38.0801 29.89 38.09 33.36 41.46 33.36C44.83 33.36 44.8301 29.89 48.2001 29.89V29.71C48.2001 26.68 45.55 24.22 42.28 24.22H13.72C10.45 24.22 7.80005 26.68 7.80005 29.71V29.89Z" fill="white"/>
<path d="M41.46 34.36C39.35 34.36 38.26 33.23 37.37 32.32C36.56 31.49 35.9801 30.89 34.7201 30.89C33.4601 30.89 32.88 31.49 32.07 32.32C31.1901 33.23 30.09 34.36 27.99 34.36C25.89 34.36 24.79 33.23 23.91 32.32C23.1 31.49 22.52 30.89 21.26 30.89C20 30.89 19.42 31.49 18.61 32.32C17.73 33.23 16.63 34.36 14.53 34.36C12.43 34.36 11.33 33.23 10.45 32.32C9.64005 31.49 9.06005 30.89 7.80005 30.89C7.25005 30.89 6.80005 30.45 6.80005 29.9V29.72C6.80005 26.13 9.90005 23.22 13.71 23.22H42.28C46.09 23.22 49.2001 26.13 49.2001 29.71V29.89C49.2001 30.16 49.1 30.41 48.91 30.6C48.7201 30.79 48.4701 30.89 48.2001 30.89C46.9401 30.89 46.3601 31.49 45.55 32.32C44.67 33.23 43.57 34.36 41.46 34.36ZM34.7201 28.89C36.8301 28.89 37.9301 30.02 38.8101 30.93C39.6201 31.76 40.2001 32.36 41.46 32.36C42.72 32.36 43.3 31.76 44.1101 30.93C44.8301 30.19 45.6901 29.3 47.1301 29C46.75 26.86 44.72 25.22 42.28 25.22H13.72C11.28 25.22 9.24005 26.86 8.87005 29C10.31 29.3 11.17 30.19 11.89 30.93C12.7 31.76 13.28 32.36 14.54 32.36C15.8 32.36 16.38 31.76 17.19 30.93C18.07 30.02 19.17 28.89 21.27 28.89C23.37 28.89 24.47 30.02 25.35 30.93C26.16 31.76 26.74 32.36 28 32.36C29.26 32.36 29.84 31.76 30.65 30.93C31.53 30.02 32.63 28.89 34.73 28.89H34.7201Z" fill="#1E1E1E"/>
<path d="M22.06 12.47H33.93C40.98 12.47 46.7 18.19 46.7 25.24C46.7 25.7 46.32 26.08 45.86 26.08H10.13C9.67004 26.08 9.29004 25.7 9.29004 25.24C9.29004 18.19 15.01 12.47 22.06 12.47Z" fill="white"/>
<path d="M45.87 27.07H10.13C9.11004 27.07 8.29004 26.24 8.29004 25.23C8.29004 17.64 14.47 11.46 22.06 11.46H33.94C41.53 11.46 47.71 17.64 47.71 25.23C47.71 26.24 46.88 27.07 45.87 27.07ZM10.3 25.07H45.71C45.62 18.65 40.38 13.46 33.94 13.46H22.06C15.62 13.46 10.38 18.65 10.29 25.07H10.3Z" fill="#1E1E1E"/>
<path d="M22.06 12.47H33.93C40.98 12.47 46.7 18.19 46.7 25.24C46.7 25.7 46.32 26.08 45.86 26.08H10.13C9.67004 26.08 9.29004 25.7 9.29004 25.24C9.29004 18.19 15.01 12.47 22.06 12.47Z" fill="white"/>
<path d="M45.87 27.07H10.13C9.11004 27.07 8.29004 26.24 8.29004 25.23C8.29004 17.64 14.47 11.46 22.06 11.46H33.94C41.53 11.46 47.71 17.64 47.71 25.23C47.71 26.24 46.88 27.07 45.87 27.07ZM10.3 25.07H45.71C45.62 18.65 40.38 13.46 33.94 13.46H22.06C15.62 13.46 10.38 18.65 10.29 25.07H10.3Z" fill="#1E1E1E"/>
<path d="M40.61 43.5398L15.4 43.5398C12.03 43.5398 9.29996 40.8098 9.29996 37.4398C9.29996 36.9798 9.67996 36.5998 10.14 36.5998L45.87 36.5998C46.33 36.5998 46.71 36.9798 46.71 37.4398C46.71 40.8098 43.98 43.5398 40.61 43.5398Z" fill="white"/>
<path d="M40.61 44.5298H15.39C11.47 44.5298 8.29004 41.3498 8.29004 37.4298C8.29004 36.4198 9.12004 35.5898 10.13 35.5898H45.86C46.88 35.5898 47.7 36.4198 47.7 37.4298C47.7 41.3498 44.51 44.5298 40.6 44.5298H40.61ZM10.3 37.5898C10.38 40.3298 12.64 42.5298 15.4 42.5298H40.61C43.37 42.5298 45.62 40.3298 45.71 37.5898H10.3Z" fill="#1E1E1E"/>
<path d="M23.4699 18.29C24.7599 18.29 24.7599 16.29 23.4699 16.29C22.1799 16.29 22.1799 18.29 23.4699 18.29Z" fill="#1E1E1E"/>
<path d="M23.7199 23.1299C25.0099 23.1299 25.0099 21.1299 23.7199 21.1299C22.4299 21.1299 22.4299 23.1299 23.7199 23.1299Z" fill="#1E1E1E"/>
<path d="M18.54 19.5999C19.83 19.5999 19.83 17.5999 18.54 17.5999C17.25 17.5999 17.25 19.5999 18.54 19.5999Z" fill="#1E1E1E"/>
<path d="M28.5901 19.26C29.8801 19.26 29.8801 17.26 28.5901 17.26C27.3001 17.26 27.3001 19.26 28.5901 19.26Z" fill="#1E1E1E"/>
<path d="M31.28 23.7C32.57 23.7 32.57 21.7 31.28 21.7C29.99 21.7 29.99 23.7 31.28 23.7Z" fill="#1E1E1E"/>
<path d="M37.99 21.8301C39.28 21.8301 39.28 19.8301 37.99 19.8301C36.7 19.8301 36.7 21.8301 37.99 21.8301Z" fill="#1E1E1E"/>
<path d="M34.3701 18.21C35.6601 18.21 35.6601 16.21 34.3701 16.21C33.0801 16.21 33.0801 18.21 34.3701 18.21Z" fill="#1E1E1E"/>
</g>
<defs>
<clipPath id="clip0_244_174">
<rect width="56" height="56" fill="white"/>
</clipPath>
</defs>
</svg>
