<svg width="398" height="68" viewBox="0 0 398 68" fill="none" xmlns="http://www.w3.org/2000/svg">
<path d="M397.887 67.6L387.711 67.696V60.784C384.735 65.008 380.607 67.6 375.999 67.6C375.327 67.6 374.655 67.6 373.983 67.504C372.063 67.216 370.239 66.64 368.511 65.68C366.687 64.816 365.055 63.568 363.519 62.224C361.791 60.592 360.447 58.672 359.391 56.464C356.415 49.84 356.415 42.256 359.391 35.632C360.447 33.52 361.791 31.504 363.519 29.872C365.055 28.528 366.687 27.376 368.511 26.416C370.239 25.552 372.063 24.88 373.983 24.592C374.655 24.496 375.327 24.496 375.999 24.496C380.607 24.496 384.735 27.088 387.711 31.312V14.992C387.711 13.072 387.519 11.248 387.135 9.42396C386.847 8.27195 386.559 7.11995 386.079 5.96796C385.695 4.91195 384.927 3.95195 384.063 3.18396C382.815 2.22395 381.279 1.64795 379.647 1.74395V0.303955C381.471 0.303955 383.391 0.591957 385.119 1.16796C386.559 1.64795 387.999 2.31996 389.247 3.18396C390.687 4.23996 391.935 5.58396 392.799 7.21596C394.047 9.61596 394.623 12.208 394.623 14.992V60.592C394.623 63.184 395.679 65.68 397.599 67.408L397.887 67.6ZM375.999 66.256C380.703 66.256 385.023 63.088 387.711 58.192V33.904C385.023 29.008 380.703 25.84 375.999 25.84H375.807C373.599 25.936 371.391 26.8 369.759 28.336C368.511 29.488 367.551 30.832 366.879 32.368C366.111 34.096 365.535 35.92 365.151 37.744C363.711 43.216 363.711 48.88 365.151 54.352C365.535 56.176 366.111 58 366.879 59.728C367.551 61.264 368.511 62.704 369.759 63.856C371.487 65.392 373.695 66.256 375.999 66.256Z" fill="#FFB800"/>
<path d="M349.354 34.7679C353.386 41.7759 353.386 50.3199 349.354 57.3279C348.106 59.6319 346.378 61.5519 344.266 62.9919C342.538 64.3359 340.618 65.3918 338.506 66.0639C336.586 66.8319 334.57 67.3119 332.458 67.5039C331.786 67.5999 331.21 67.5999 330.538 67.5999H330.442C329.77 67.5999 329.098 67.5999 328.522 67.5039C326.41 67.3119 324.394 66.8319 322.474 66.0639C320.362 65.3918 318.442 64.3359 316.714 62.9919C314.602 61.5519 312.874 59.6319 311.53 57.3279C307.594 50.3199 307.594 41.7759 311.53 34.7679C312.874 32.5599 314.602 30.5439 316.714 29.1039C318.442 27.7599 320.362 26.7039 322.474 26.0319C324.394 25.2639 326.41 24.7839 328.522 24.5919C329.098 24.4958 329.77 24.4958 330.442 24.4958C331.114 24.4958 331.786 24.4958 332.458 24.5919C334.57 24.7839 336.586 25.2639 338.506 26.0319C340.618 26.7039 342.538 27.7599 344.266 29.1039C346.378 30.5439 348.106 32.5599 349.354 34.7679ZM343.882 54.7359C345.898 49.0719 345.898 43.0239 343.882 37.3599C343.306 35.4399 342.346 33.7119 341.29 31.9839C340.33 30.4479 338.986 29.1039 337.546 28.0479C335.434 26.6079 333.034 25.8399 330.442 25.8399H330.346C327.85 25.8399 325.45 26.6079 323.434 28.0479C321.898 29.1039 320.65 30.4479 319.69 31.9839C318.538 33.7119 317.674 35.4399 317.098 37.3599C315.082 43.0239 315.082 49.0719 317.098 54.7359C317.674 56.6559 318.538 58.4799 319.69 60.1119C320.65 61.6479 321.898 63.0879 323.434 64.1439C325.546 65.4879 327.946 66.2559 330.442 66.2559H330.538H330.634C333.13 66.2559 335.53 65.4879 337.546 64.0479C339.082 62.9919 340.33 61.6479 341.29 60.1119C342.346 58.3839 343.306 56.6559 343.882 54.7359Z" fill="#FFB800"/>
<path d="M300.916 34.7679C304.948 41.7759 304.948 50.3199 300.916 57.3279C299.668 59.6319 297.94 61.5519 295.828 62.9919C294.1 64.3359 292.18 65.3918 290.068 66.0639C288.148 66.8319 286.132 67.3119 284.02 67.5039C283.348 67.5999 282.772 67.5999 282.1 67.5999H282.004C281.332 67.5999 280.66 67.5999 280.084 67.5039C277.972 67.3119 275.956 66.8319 274.036 66.0639C271.924 65.3918 270.004 64.3359 268.276 62.9919C266.164 61.5519 264.436 59.6319 263.092 57.3279C259.156 50.3199 259.156 41.7759 263.092 34.7679C264.436 32.5599 266.164 30.5439 268.276 29.1039C270.004 27.7599 271.924 26.7039 274.036 26.0319C275.956 25.2639 277.972 24.7839 280.084 24.5919C280.66 24.4958 281.332 24.4958 282.004 24.4958C282.676 24.4958 283.348 24.4958 284.02 24.5919C286.132 24.7839 288.148 25.2639 290.068 26.0319C292.18 26.7039 294.1 27.7599 295.828 29.1039C297.94 30.5439 299.668 32.5599 300.916 34.7679ZM295.444 54.7359C297.46 49.0719 297.46 43.0239 295.444 37.3599C294.868 35.4399 293.908 33.7119 292.852 31.9839C291.892 30.4479 290.548 29.1039 289.108 28.0479C286.996 26.6079 284.596 25.8399 282.004 25.8399H281.908C279.412 25.8399 277.012 26.6079 274.996 28.0479C273.46 29.1039 272.212 30.4479 271.252 31.9839C270.1 33.7119 269.236 35.4399 268.66 37.3599C266.644 43.0239 266.644 49.0719 268.66 54.7359C269.236 56.6559 270.1 58.4799 271.252 60.1119C272.212 61.6479 273.46 63.0879 274.996 64.1439C277.108 65.4879 279.508 66.2559 282.004 66.2559H282.1H282.196C284.692 66.2559 287.092 65.4879 289.108 64.0479C290.644 62.9919 291.892 61.6479 292.852 60.1119C293.908 58.3839 294.868 56.6559 295.444 54.7359Z" fill="#FFB800"/>
<path d="M274.143 13.072C274.431 13.648 273.759 14.32 272.607 14.896C271.839 15.28 271.071 15.568 270.303 15.76C269.055 16.144 267.999 15.76 267.999 15.184C267.807 13.744 267.615 12.304 267.231 10.96C266.943 9.61599 266.367 8.46399 265.407 7.40799C264.351 6.25599 262.719 5.58399 261.087 5.67999C259.359 5.58399 257.727 6.06399 256.287 7.02399C255.327 7.79199 254.559 8.75199 253.983 9.90399C253.407 11.056 253.023 12.4 252.735 13.648C252.351 15.568 252.063 17.584 252.063 19.504V24.496H262.335V25.84H252.063V60.592C252.063 63.184 253.119 65.68 255.039 67.408L255.327 67.696H241.887L242.175 67.408C243.999 65.68 245.151 63.184 245.151 60.592V25.84H234.879V24.496H245.151V19.504C245.055 16.624 245.823 13.84 247.167 11.248C248.127 9.61599 249.375 8.17599 250.911 7.02399C252.255 6.15999 253.791 5.48799 255.327 5.00799C257.247 4.43199 259.167 4.23999 261.087 4.23999H261.183C263.103 4.23999 265.023 4.52799 266.847 5.29599C268.575 6.06399 270.015 7.21599 271.263 8.75199C272.319 10.096 273.279 11.536 274.143 13.072Z" fill="#FFB800"/>
<path d="M197.275 60.592V14.704C197.275 12.88 197.083 11.056 196.699 9.32796C196.507 8.07996 196.123 6.92796 195.739 5.87196C194.683 3.27996 192.091 1.55196 189.307 1.74395V0.303955C191.131 0.303955 192.955 0.591957 194.683 1.07196C196.123 1.55196 197.563 2.22395 198.811 3.08795C200.251 4.04795 201.499 5.39196 202.363 7.02395C203.611 9.42396 204.283 12.016 204.187 14.704V60.592C204.187 63.184 205.339 65.68 207.259 67.408L207.451 67.6H194.011L194.299 67.408C196.219 65.68 197.275 63.184 197.275 60.592Z" fill="#FFB800"/>
<path d="M190.563 67.6L180.291 67.696V62.5121C179.043 63.472 177.699 64.336 176.259 65.104C174.915 65.776 173.475 66.3521 172.035 66.64C171.075 66.928 170.115 67.12 169.155 67.312C166.947 67.696 164.739 67.696 162.627 67.408C160.323 67.12 158.211 66.352 156.291 65.104L155.523 64.6241C155.235 64.432 155.043 64.24 154.755 63.952C154.275 63.568 153.795 62.9921 153.411 62.5121C153.027 61.84 152.643 61.264 152.355 60.592C152.067 59.92 151.875 59.344 151.683 58.672C151.107 56.176 151.299 53.488 152.259 51.088C153.219 48.88 154.659 47.056 156.483 45.616C158.403 44.272 160.419 43.216 162.531 42.448C164.739 41.584 167.043 40.912 169.347 40.432C179.427 37.936 179.811 34.672 179.811 34.576H179.907C179.811 34.096 179.715 33.616 179.619 33.136C179.331 31.984 178.851 30.832 178.179 29.776C177.603 28.72 176.739 27.856 175.779 27.184C174.339 26.224 172.707 25.84 170.979 25.84C168.867 25.84 166.851 26.512 165.123 27.76C162.435 29.872 160.803 33.04 160.707 36.496C160.611 37.168 159.651 37.456 158.403 37.36C157.539 37.36 156.771 37.264 156.003 36.976C154.755 36.592 153.987 35.536 154.467 34.768C155.331 32.56 156.675 30.64 158.307 29.008C159.843 27.376 161.859 26.128 163.971 25.456C166.275 24.784 168.579 24.4 170.979 24.496C172.899 24.496 174.723 24.688 176.643 25.072C178.179 25.36 179.619 25.936 180.963 26.608C182.691 27.568 184.035 28.912 185.091 30.544C186.531 32.944 187.299 35.824 187.299 38.608V60.592C187.299 63.184 188.355 65.68 190.275 67.408L190.563 67.6ZM175.587 63.856C177.315 62.992 178.851 61.936 180.291 60.688V38.608C180.291 37.936 180.291 37.36 180.195 36.784C178.947 38.224 176.067 40.24 169.635 41.776C164.739 43.024 161.283 45.616 159.555 48.496C158.787 49.744 158.211 51.28 158.115 52.72C158.019 54.16 158.115 55.6 158.499 56.944C158.499 57.328 158.691 57.7121 158.787 58.0961C158.883 58.2881 158.883 58.576 159.075 58.864C159.171 59.152 159.363 59.44 159.555 59.632L159.843 60.112L160.131 60.496C161.187 61.648 162.435 62.704 163.779 63.472C165.411 64.336 167.235 64.912 169.155 65.104C171.363 65.296 173.571 64.816 175.587 63.856Z" fill="#FFB800"/>
<path d="M146.755 55.2159L148.099 55.5999L147.907 56.2719C147.811 56.3679 144.259 67.3119 128.899 67.5999H128.323H127.555C127.075 67.5999 126.595 67.5999 126.211 67.5039C124.099 67.3119 122.083 66.8319 120.163 66.1599C118.051 65.3918 116.131 64.3359 114.403 63.0879C112.291 61.5519 110.563 59.6319 109.219 57.4239C105.187 50.3199 105.187 41.7759 109.219 34.6719C110.563 32.4639 112.291 30.5439 114.403 29.0079C116.131 27.7598 118.051 26.7039 120.163 25.9359C122.083 25.2639 124.099 24.7839 126.211 24.5919C126.883 24.4958 127.555 24.4958 128.227 24.4958H128.899C130.915 24.5919 132.835 24.9758 134.659 25.5518C136.675 26.2238 138.499 27.3758 139.939 28.9118C141.571 30.5439 142.723 32.5599 143.299 34.7679C143.491 35.6319 142.627 36.4959 141.379 36.6879C140.611 36.7839 139.747 36.7839 138.979 36.6879C137.635 36.4959 136.771 36.1119 136.867 35.6319C136.963 34.1918 136.771 32.8479 136.291 31.5039C135.619 30.0639 134.659 28.8159 133.411 27.8559C131.971 26.6079 130.147 25.8399 128.227 25.8399H128.035C125.539 25.8399 123.139 26.6079 121.123 28.0479C119.587 29.1039 118.339 30.4479 117.283 31.9839C116.227 33.6159 115.363 35.4399 114.691 37.3599C112.675 43.0239 112.675 49.1679 114.691 54.7359C115.363 56.6559 116.227 58.4799 117.379 60.1119C118.339 61.7439 119.587 63.0879 121.123 64.1439C123.235 65.4879 125.731 66.2559 128.227 66.2559H128.323C143.203 66.1599 146.467 55.9839 146.563 55.8879L146.755 55.2159Z" fill="#FFB800"/>
<path d="M98.5096 34.7679C102.542 41.7759 102.542 50.3199 98.5096 57.3279C97.2616 59.6319 95.5336 61.5519 93.4216 62.9919C91.6936 64.3359 89.7736 65.3918 87.6616 66.0639C85.7416 66.8319 83.7256 67.3119 81.6136 67.5039C80.9416 67.5999 80.3656 67.5999 79.6936 67.5999H79.5976C78.9256 67.5999 78.2536 67.5999 77.6776 67.5039C75.5656 67.3119 73.5496 66.8319 71.6296 66.0639C69.5176 65.3918 67.5976 64.3359 65.8696 62.9919C63.7576 61.5519 62.0296 59.6319 60.6856 57.3279C56.7496 50.3199 56.7496 41.7759 60.6856 34.7679C62.0296 32.5599 63.7576 30.5439 65.8696 29.1039C67.5976 27.7599 69.5176 26.7039 71.6296 26.0319C73.5496 25.2639 75.5656 24.7839 77.6776 24.5919C78.2536 24.4958 78.9256 24.4958 79.5976 24.4958C80.2696 24.4958 80.9416 24.4958 81.6136 24.5919C83.7256 24.7839 85.7416 25.2639 87.6616 26.0319C89.7736 26.7039 91.6936 27.7599 93.4216 29.1039C95.5336 30.5439 97.2616 32.5599 98.5096 34.7679ZM93.0376 54.7359C95.0536 49.0719 95.0536 43.0239 93.0376 37.3599C92.4616 35.4399 91.5016 33.7119 90.4456 31.9839C89.4856 30.4479 88.1416 29.1039 86.7016 28.0479C84.5896 26.6079 82.1896 25.8399 79.5976 25.8399H79.5016C77.0056 25.8399 74.6056 26.6079 72.5896 28.0479C71.0536 29.1039 69.8056 30.4479 68.8456 31.9839C67.6936 33.7119 66.8296 35.4399 66.2536 37.3599C64.2376 43.0239 64.2376 49.0719 66.2536 54.7359C66.8296 56.6559 67.6936 58.4799 68.8456 60.1119C69.8056 61.6479 71.0536 63.0879 72.5896 64.1439C74.7016 65.4879 77.1016 66.2559 79.5976 66.2559H79.6936H79.7896C82.2856 66.2559 84.6856 65.4879 86.7016 64.0479C88.2376 62.9919 89.4856 61.6479 90.4456 60.1119C91.5016 58.3839 92.4616 56.6559 93.0376 54.7359Z" fill="#FFB800"/>
<path d="M55.68 60.208V67.6H0L0.288 67.408C2.112 65.584 3.264 63.184 3.264 60.592V7.40796C3.264 4.81595 2.112 2.31996 0.288 0.591957L0 0.303955H13.44L13.152 0.591957C11.232 2.31996 10.176 4.81595 10.176 7.40796V66.256H46.08C48.672 66.256 51.168 65.2 52.896 63.28L55.68 60.208Z" fill="#FFB800"/>
</svg>
