<svg width="24" height="24" viewBox="0 0 24 24" fill="none" xmlns="http://www.w3.org/2000/svg">
<path d="M14.8388 14.46C14.0388 15.26 12.7388 15.26 11.9488 14.46L9.53875 12.05C8.73875 11.25 8.73875 9.95 9.53875 9.16C10.6188 8.08 10.6188 6.32 9.53875 5.24L7.68875 3.39C7.16875 2.87 6.31875 2.87 5.78875 3.39L5.01875 4.16C2.32875 6.84 2.32875 11.23 5.00875 13.91L10.0688 18.97C12.7488 21.65 17.1488 21.65 19.8288 18.97L20.5988 18.2C21.1188 17.68 21.1188 16.83 20.5988 16.3L18.7488 14.45C17.6688 13.37 15.9088 13.37 14.8288 14.45L14.8388 14.46Z" fill="white"/>
</svg>
