<svg width="53" height="52" viewBox="0 0 53 52" fill="none" xmlns="http://www.w3.org/2000/svg">
<g clip-path="url(#clip0_204_1542)">
<path d="M23.4915 38.9547C19.521 38.9547 15.5632 37.4499 12.541 34.4278C6.50943 28.3962 6.50943 18.5711 12.541 12.5268C18.5727 6.48259 28.3977 6.48259 34.442 12.5268C40.4736 18.5585 40.4736 28.3835 34.442 34.4278C31.4199 37.4499 27.462 38.9547 23.4915 38.9547ZM23.4915 10.529C20.1786 10.529 16.853 11.7934 14.3366 14.3224C9.29131 19.3804 9.29131 27.5869 14.3366 32.6449C19.3946 37.6902 27.6011 37.6902 32.6591 32.6449C37.7044 27.5869 37.7044 19.3804 32.6591 14.3224C30.1301 11.7934 26.8171 10.529 23.5042 10.529H23.4915Z" fill="#1E1E1E"/>
<path d="M42.7497 44.0001C42.421 44.0001 42.1049 43.8737 41.852 43.6334L32.6465 34.4279C32.1533 33.9348 32.1533 33.1382 32.6465 32.645C33.1396 32.1519 33.9363 32.1519 34.4294 32.645L43.6349 41.8505C44.128 42.3436 44.128 43.1403 43.6349 43.6334C43.382 43.8863 43.0659 44.0001 42.7371 44.0001H42.7497Z" fill="#1E1E1E"/>
</g>
<defs>
<clipPath id="clip0_204_1542">
<rect width="36" height="36" fill="white" transform="translate(8.01416 8)"/>
</clipPath>
</defs>
</svg>
