<svg width="40" height="40" viewBox="0 0 40 40" fill="none" xmlns="http://www.w3.org/2000/svg">
<path fill-rule="evenodd" clip-rule="evenodd" d="M23.6211 14.4063C26.1538 16.939 26.1538 21.0452 23.6211 23.5779C21.0885 26.1106 16.9822 26.1106 14.4495 23.5779C11.9169 21.0452 11.9169 16.939 14.4495 14.4063C16.9822 11.8737 21.0885 11.8737 23.6211 14.4063ZM25.663 24.2918C28.3338 20.9601 28.1246 16.0814 25.0353 12.9921C21.7216 9.67841 16.349 9.67841 13.0353 12.9921C9.72162 16.3058 9.72162 21.6784 13.0353 24.9921C16.095 28.0518 20.9099 28.2863 24.2387 25.6959L28.0356 29.4928L29.4498 28.0785L25.663 24.2918Z" fill="black"/>
</svg>
